<mxfile host="app.diagrams.net" modified="2024-03-24T21:35:36.721Z" agent="Mozilla/5.0 (Windows NT 10.0; Win64; x64) AppleWebKit/537.36 (KHTML, like Gecko) Chrome/123.0.0.0 Safari/537.36" etag="Ee9DQkcTAO_rWef2aULn" version="24.1.0" type="github">
  <diagram id="C5RBs43oDa-KdzZeNtuy" name="Page-1">
    <mxGraphModel dx="1050" dy="522" grid="1" gridSize="10" guides="1" tooltips="1" connect="1" arrows="1" fold="1" page="1" pageScale="1" pageWidth="827" pageHeight="1169" math="0" shadow="0">
      <root>
        <mxCell id="WIyWlLk6GJQsqaUBKTNV-0" />
        <mxCell id="WIyWlLk6GJQsqaUBKTNV-1" parent="WIyWlLk6GJQsqaUBKTNV-0" />
        <mxCell id="FPIB8zg-wwrVl2GLh9i_-3" value="Musica" style="swimlane;fontStyle=1;align=center;verticalAlign=top;childLayout=stackLayout;horizontal=1;startSize=26;horizontalStack=0;resizeParent=1;resizeParentMax=0;resizeLast=0;collapsible=1;marginBottom=0;whiteSpace=wrap;html=1;" vertex="1" parent="WIyWlLk6GJQsqaUBKTNV-1">
          <mxGeometry x="110" y="120" width="260" height="250" as="geometry" />
        </mxCell>
        <mxCell id="FPIB8zg-wwrVl2GLh9i_-4" value="-nome: String&lt;div&gt;-autor: String&lt;/div&gt;&lt;div&gt;-gravadora: String&lt;/div&gt;" style="text;strokeColor=none;fillColor=none;align=left;verticalAlign=top;spacingLeft=4;spacingRight=4;overflow=hidden;rotatable=0;points=[[0,0.5],[1,0.5]];portConstraint=eastwest;whiteSpace=wrap;html=1;" vertex="1" parent="FPIB8zg-wwrVl2GLh9i_-3">
          <mxGeometry y="26" width="260" height="64" as="geometry" />
        </mxCell>
        <mxCell id="FPIB8zg-wwrVl2GLh9i_-5" value="" style="line;strokeWidth=1;fillColor=none;align=left;verticalAlign=middle;spacingTop=-1;spacingLeft=3;spacingRight=3;rotatable=0;labelPosition=right;points=[];portConstraint=eastwest;strokeColor=inherit;" vertex="1" parent="FPIB8zg-wwrVl2GLh9i_-3">
          <mxGeometry y="90" width="260" height="8" as="geometry" />
        </mxCell>
        <mxCell id="FPIB8zg-wwrVl2GLh9i_-6" value="+Musica()&lt;div&gt;+getNome(): String&lt;/div&gt;&lt;div&gt;+setNome(nome: String): void&lt;/div&gt;&lt;div&gt;+getAutor(): Sting&lt;/div&gt;&lt;div&gt;+setAutor(autor: String): void&lt;/div&gt;&lt;div&gt;+getGravadora(): String&lt;/div&gt;&lt;div&gt;+setGravadora(gravadora: String): void&lt;/div&gt;" style="text;strokeColor=none;fillColor=none;align=left;verticalAlign=top;spacingLeft=4;spacingRight=4;overflow=hidden;rotatable=0;points=[[0,0.5],[1,0.5]];portConstraint=eastwest;whiteSpace=wrap;html=1;" vertex="1" parent="FPIB8zg-wwrVl2GLh9i_-3">
          <mxGeometry y="98" width="260" height="152" as="geometry" />
        </mxCell>
      </root>
    </mxGraphModel>
  </diagram>
</mxfile>
